<mxfile host="app.diagrams.net" modified="2021-03-26T16:12:21.882Z" agent="5.0 (Windows NT 10.0; Win64; x64) AppleWebKit/537.36 (KHTML, like Gecko) Chrome/89.0.4389.90 Safari/537.36" etag="XyS37cp-Z24A08tIX8KJ" version="14.5.1" type="github">
  <diagram id="2QXcxtaourxVFImL5MSB" name="Page-1">
    <mxGraphModel dx="3076" dy="1943" grid="1" gridSize="10" guides="1" tooltips="1" connect="1" arrows="1" fold="1" page="1" pageScale="1" pageWidth="827" pageHeight="1169" math="0" shadow="0">
      <root>
        <mxCell id="0" />
        <mxCell id="1" parent="0" />
        <mxCell id="dw-e8g42IJpEXf-xuNPu-3" value="&lt;b&gt;OTC&lt;/b&gt;" style="rounded=1;whiteSpace=wrap;html=1;verticalAlign=top;strokeWidth=1;strokeColor=#020912;dashed=1;fontSize=47;" vertex="1" parent="1">
          <mxGeometry x="320" y="230" width="650" height="700" as="geometry" />
        </mxCell>
        <mxCell id="dw-e8g42IJpEXf-xuNPu-37" value="&lt;font style=&quot;font-size: 31px&quot;&gt;SAP CX&lt;/font&gt;" style="rounded=1;whiteSpace=wrap;html=1;verticalAlign=top;strokeWidth=1;strokeColor=#020912;dashed=1;fontSize=47;" vertex="1" parent="1">
          <mxGeometry x="350" y="370" width="610" height="370" as="geometry" />
        </mxCell>
        <mxCell id="dw-e8g42IJpEXf-xuNPu-1" value="&lt;b style=&quot;font-size: 47px&quot;&gt;API &lt;br&gt;Management&lt;/b&gt;" style="rounded=1;whiteSpace=wrap;html=1;verticalAlign=top;strokeWidth=1;strokeColor=#020912;dashed=1;fontSize=47;" vertex="1" parent="1">
          <mxGeometry x="-260" y="230" width="420" height="690" as="geometry" />
        </mxCell>
        <mxCell id="dw-e8g42IJpEXf-xuNPu-2" value="SAP CPI" style="rounded=1;whiteSpace=wrap;html=1;fontSize=41;verticalAlign=top;" vertex="1" parent="1">
          <mxGeometry x="-160" y="480" width="220" height="150" as="geometry" />
        </mxCell>
        <mxCell id="dw-e8g42IJpEXf-xuNPu-5" value="&lt;b style=&quot;font-size: 47px;&quot;&gt;Design Tools&lt;/b&gt;" style="rounded=1;whiteSpace=wrap;html=1;verticalAlign=top;strokeWidth=1;strokeColor=#020912;dashed=1;fontSize=47;" vertex="1" parent="1">
          <mxGeometry x="-840" y="10" width="510" height="1150" as="geometry" />
        </mxCell>
        <mxCell id="dw-e8g42IJpEXf-xuNPu-6" value="Fusion" style="rounded=1;whiteSpace=wrap;html=1;fontSize=41;" vertex="1" parent="1">
          <mxGeometry x="-700" y="150" width="220" height="120" as="geometry" />
        </mxCell>
        <mxCell id="dw-e8g42IJpEXf-xuNPu-7" value="Design" style="rounded=1;whiteSpace=wrap;html=1;fontSize=41;" vertex="1" parent="1">
          <mxGeometry x="-700" y="310" width="220" height="120" as="geometry" />
        </mxCell>
        <mxCell id="dw-e8g42IJpEXf-xuNPu-8" value="Ideal Spaces" style="rounded=1;whiteSpace=wrap;html=1;fontSize=41;" vertex="1" parent="1">
          <mxGeometry x="-700" y="470" width="220" height="120" as="geometry" />
        </mxCell>
        <mxCell id="dw-e8g42IJpEXf-xuNPu-9" value="Winner" style="rounded=1;whiteSpace=wrap;html=1;fontSize=41;" vertex="1" parent="1">
          <mxGeometry x="-700" y="630" width="220" height="120" as="geometry" />
        </mxCell>
        <mxCell id="dw-e8g42IJpEXf-xuNPu-10" value="CET" style="rounded=1;whiteSpace=wrap;html=1;fontSize=41;" vertex="1" parent="1">
          <mxGeometry x="-700" y="790" width="220" height="120" as="geometry" />
        </mxCell>
        <mxCell id="dw-e8g42IJpEXf-xuNPu-11" value="Vertex" style="rounded=1;whiteSpace=wrap;html=1;fontSize=41;" vertex="1" parent="1">
          <mxGeometry x="-700" y="960" width="220" height="120" as="geometry" />
        </mxCell>
        <mxCell id="dw-e8g42IJpEXf-xuNPu-12" value="SAP CPQ" style="rounded=1;whiteSpace=wrap;html=1;fontSize=41;" vertex="1" parent="1">
          <mxGeometry x="710" y="610" width="220" height="120" as="geometry" />
        </mxCell>
        <mxCell id="dw-e8g42IJpEXf-xuNPu-13" value="SAP Sales Cloud" style="rounded=1;whiteSpace=wrap;html=1;fontSize=41;" vertex="1" parent="1">
          <mxGeometry x="710" y="430" width="220" height="120" as="geometry" />
        </mxCell>
        <mxCell id="dw-e8g42IJpEXf-xuNPu-14" style="edgeStyle=none;rounded=0;orthogonalLoop=1;jettySize=auto;html=1;exitX=1;exitY=0.5;exitDx=0;exitDy=0;entryX=0;entryY=0.5;entryDx=0;entryDy=0;fontSize=21;" edge="1" parent="1" source="dw-e8g42IJpEXf-xuNPu-15" target="dw-e8g42IJpEXf-xuNPu-36">
          <mxGeometry relative="1" as="geometry">
            <mxPoint x="384" y="573" as="targetPoint" />
          </mxGeometry>
        </mxCell>
        <mxCell id="dw-e8g42IJpEXf-xuNPu-15" value="&lt;b&gt;API&lt;/b&gt;" style="rounded=1;whiteSpace=wrap;html=1;fontSize=18;" vertex="1" parent="1">
          <mxGeometry x="-82" y="556" width="60" height="34" as="geometry" />
        </mxCell>
        <mxCell id="dw-e8g42IJpEXf-xuNPu-16" style="edgeStyle=none;rounded=0;orthogonalLoop=1;jettySize=auto;html=1;exitX=1;exitY=0.5;exitDx=0;exitDy=0;fontSize=21;entryX=0;entryY=0.5;entryDx=0;entryDy=0;" edge="1" parent="1" source="dw-e8g42IJpEXf-xuNPu-17" target="dw-e8g42IJpEXf-xuNPu-15">
          <mxGeometry relative="1" as="geometry">
            <mxPoint x="-210" y="470" as="targetPoint" />
          </mxGeometry>
        </mxCell>
        <mxCell id="dw-e8g42IJpEXf-xuNPu-17" value="Calls" style="rounded=1;whiteSpace=wrap;html=1;fontSize=18;" vertex="1" parent="1">
          <mxGeometry x="-510" y="196" width="60" height="34" as="geometry" />
        </mxCell>
        <mxCell id="dw-e8g42IJpEXf-xuNPu-18" style="edgeStyle=none;rounded=0;orthogonalLoop=1;jettySize=auto;html=1;exitX=1;exitY=0.5;exitDx=0;exitDy=0;fontSize=21;" edge="1" parent="1" source="dw-e8g42IJpEXf-xuNPu-19">
          <mxGeometry relative="1" as="geometry">
            <mxPoint x="-90" y="570" as="targetPoint" />
          </mxGeometry>
        </mxCell>
        <mxCell id="dw-e8g42IJpEXf-xuNPu-19" value="Calls" style="rounded=1;whiteSpace=wrap;html=1;fontSize=18;" vertex="1" parent="1">
          <mxGeometry x="-510" y="353" width="60" height="34" as="geometry" />
        </mxCell>
        <mxCell id="dw-e8g42IJpEXf-xuNPu-20" style="edgeStyle=none;rounded=0;orthogonalLoop=1;jettySize=auto;html=1;exitX=1;exitY=0.5;exitDx=0;exitDy=0;entryX=0;entryY=0.5;entryDx=0;entryDy=0;fillColor=#ffffff;fontSize=21;" edge="1" parent="1" source="dw-e8g42IJpEXf-xuNPu-21" target="dw-e8g42IJpEXf-xuNPu-15">
          <mxGeometry relative="1" as="geometry" />
        </mxCell>
        <mxCell id="dw-e8g42IJpEXf-xuNPu-21" value="Calls" style="rounded=1;whiteSpace=wrap;html=1;fontSize=18;" vertex="1" parent="1">
          <mxGeometry x="-510" y="525" width="60" height="34" as="geometry" />
        </mxCell>
        <mxCell id="dw-e8g42IJpEXf-xuNPu-22" style="edgeStyle=none;rounded=0;orthogonalLoop=1;jettySize=auto;html=1;exitX=1;exitY=0.5;exitDx=0;exitDy=0;entryX=0;entryY=0.5;entryDx=0;entryDy=0;fontSize=21;" edge="1" parent="1" source="dw-e8g42IJpEXf-xuNPu-23" target="dw-e8g42IJpEXf-xuNPu-15">
          <mxGeometry relative="1" as="geometry" />
        </mxCell>
        <mxCell id="dw-e8g42IJpEXf-xuNPu-23" value="Calls" style="rounded=1;whiteSpace=wrap;html=1;fontSize=18;" vertex="1" parent="1">
          <mxGeometry x="-510" y="670" width="60" height="34" as="geometry" />
        </mxCell>
        <mxCell id="dw-e8g42IJpEXf-xuNPu-24" style="edgeStyle=none;rounded=0;orthogonalLoop=1;jettySize=auto;html=1;exitX=1;exitY=0.75;exitDx=0;exitDy=0;fontSize=21;" edge="1" parent="1" source="dw-e8g42IJpEXf-xuNPu-25">
          <mxGeometry relative="1" as="geometry">
            <mxPoint x="-90" y="570" as="targetPoint" />
          </mxGeometry>
        </mxCell>
        <mxCell id="dw-e8g42IJpEXf-xuNPu-25" value="Calls" style="rounded=1;whiteSpace=wrap;html=1;fontSize=18;" vertex="1" parent="1">
          <mxGeometry x="-510" y="830" width="60" height="34" as="geometry" />
        </mxCell>
        <mxCell id="dw-e8g42IJpEXf-xuNPu-26" style="edgeStyle=none;rounded=0;orthogonalLoop=1;jettySize=auto;html=1;exitX=1;exitY=0.75;exitDx=0;exitDy=0;fontSize=21;entryX=0;entryY=0.5;entryDx=0;entryDy=0;" edge="1" parent="1" source="dw-e8g42IJpEXf-xuNPu-27" target="dw-e8g42IJpEXf-xuNPu-15">
          <mxGeometry relative="1" as="geometry">
            <mxPoint x="-100" y="570" as="targetPoint" />
          </mxGeometry>
        </mxCell>
        <mxCell id="dw-e8g42IJpEXf-xuNPu-27" value="Calls" style="rounded=1;whiteSpace=wrap;html=1;fontSize=18;" vertex="1" parent="1">
          <mxGeometry x="-510" y="1003" width="60" height="34" as="geometry" />
        </mxCell>
        <mxCell id="dw-e8g42IJpEXf-xuNPu-31" value="https://API.nobia.com" style="text;whiteSpace=wrap;html=1;fontSize=41;" vertex="1" parent="1">
          <mxGeometry x="-280" y="730" width="190" height="40" as="geometry" />
        </mxCell>
        <mxCell id="dw-e8g42IJpEXf-xuNPu-32" value="" style="shape=flexArrow;endArrow=classic;html=1;fontSize=21;entryX=0.5;entryY=1;entryDx=0;entryDy=0;fillColor=#ffffff;" edge="1" parent="1">
          <mxGeometry width="50" height="50" relative="1" as="geometry">
            <mxPoint x="-52" y="738" as="sourcePoint" />
            <mxPoint x="-52.5" y="590" as="targetPoint" />
            <Array as="points">
              <mxPoint x="-52.5" y="678" />
            </Array>
          </mxGeometry>
        </mxCell>
        <mxCell id="dw-e8g42IJpEXf-xuNPu-33" value="&lt;b&gt;ITO&lt;/b&gt;" style="rounded=1;whiteSpace=wrap;html=1;fontSize=41;dashed=1;verticalAlign=top;" vertex="1" parent="1">
          <mxGeometry x="320" y="-180" width="670" height="252" as="geometry" />
        </mxCell>
        <mxCell id="dw-e8g42IJpEXf-xuNPu-34" value="Order Translation" style="rounded=1;whiteSpace=wrap;html=1;fontSize=41;" vertex="1" parent="1">
          <mxGeometry x="540" y="-80" width="220" height="120" as="geometry" />
        </mxCell>
        <mxCell id="dw-e8g42IJpEXf-xuNPu-38" style="rounded=0;orthogonalLoop=1;jettySize=auto;html=1;exitX=1;exitY=0.5;exitDx=0;exitDy=0;entryX=0;entryY=0.5;entryDx=0;entryDy=0;startArrow=classic;startFill=1;" edge="1" parent="1" source="dw-e8g42IJpEXf-xuNPu-35" target="dw-e8g42IJpEXf-xuNPu-13">
          <mxGeometry relative="1" as="geometry" />
        </mxCell>
        <mxCell id="dw-e8g42IJpEXf-xuNPu-39" style="edgeStyle=none;rounded=0;orthogonalLoop=1;jettySize=auto;html=1;exitX=1;exitY=0.5;exitDx=0;exitDy=0;entryX=0;entryY=0.5;entryDx=0;entryDy=0;startArrow=classic;startFill=1;" edge="1" parent="1" source="dw-e8g42IJpEXf-xuNPu-35" target="dw-e8g42IJpEXf-xuNPu-12">
          <mxGeometry relative="1" as="geometry" />
        </mxCell>
        <mxCell id="dw-e8g42IJpEXf-xuNPu-35" value="Pricing Service" style="rounded=1;whiteSpace=wrap;html=1;fontSize=41;" vertex="1" parent="1">
          <mxGeometry x="390" y="513" width="220" height="120" as="geometry" />
        </mxCell>
        <mxCell id="dw-e8g42IJpEXf-xuNPu-36" value="&lt;b&gt;API&lt;/b&gt;" style="rounded=1;whiteSpace=wrap;html=1;fontSize=18;" vertex="1" parent="1">
          <mxGeometry x="370" y="556" width="60" height="34" as="geometry" />
        </mxCell>
      </root>
    </mxGraphModel>
  </diagram>
</mxfile>
